<svg height="512pt" viewBox="-80 0 512 512.00071" width="512pt" xmlns="http://www.w3.org/2000/svg"><path d="m284.90625 132.957031c-3.484375-5.761719-10.378906-8.5-16.867188-6.691406-6.484374 1.808594-10.972656 7.71875-10.972656 14.449219 0 18.308594-14.894531 33.199218-33.199218 33.199218-18.304688 0-33.199219-14.890624-33.199219-33.199218v-125.714844c0-6.066406-3.65625-11.535156-9.261719-13.855469-5.605469-2.324219-12.054688-1.042969-16.34375 3.25-1.6875 1.683594-41.683594 41.917969-82.207031 102.703125-23.898438 35.84375-42.96875 71.398438-56.679688 105.675782-17.367187 43.425781-26.175781 84.996093-26.175781 123.5625 0 96.859374 78.804688 175.664062 175.667969 175.664062 96.859375 0 175.664062-78.804688 175.664062-175.664062.003907-62.003907-22.347656-130.429688-66.425781-203.378907zm-9.148438 199.476563c0 8.285156-6.714843 15-15 15-8.28125 0-15-6.714844-15-15v-28.050782l-74.6875 74.691407c-2.816406 2.8125-6.628906 4.390625-10.609374 4.390625-3.976563 0-7.792969-1.578125-10.605469-4.390625l-34.835938-34.839844-23.476562 23.476563c-5.859375 5.859374-15.355469 5.859374-21.214844 0-5.859375-5.859376-5.859375-15.355469 0-21.214844l34.085937-34.082032c5.859376-5.855468 15.355469-5.855468 21.214844.003907l34.832032 34.835937 64.085937-64.085937h-28.054687c-8.285157 0-15-6.714844-15-15 0-8.285157 6.714843-15 15-15h64.269531c8.28125 0 15 6.71875 15 15v64.265625zm0 0"/></svg>